<svg width="228" height="69" viewBox="0 0 228 69" fill="none" xmlns="http://www.w3.org/2000/svg">
<g clip-path="url(#clip0_2_21017)">
<path d="M214.13 0H13.13C5.8785 0 0 5.8785 0 13.13V55.22C0 62.4715 5.8785 68.35 13.13 68.35H214.13C221.382 68.35 227.26 62.4715 227.26 55.22V13.13C227.26 5.8785 221.382 0 214.13 0Z" fill="#3E3A39"/>
<path d="M51.3801 27.89L45.2601 33.97L27.3101 15.68C28.2101 15.14 29.3801 15.05 30.4201 15.66L51.3801 27.89Z" fill="#5EB863"/>
<path d="M51.53 40.37L30.42 52.69C29.16 53.43 27.69 53.14 26.77 52.25L45.27 33.97L51.54 40.37H51.53Z" fill="#E83845"/>
<path d="M57.63 36.81L51.58 40.34L51.53 40.37L45.26 33.97L51.38 27.89L51.43 27.92L57.63 31.54C59.65 32.72 59.65 35.63 57.63 36.81Z" fill="#F0BF1B"/>
<path d="M26.7701 52.2501C26.7701 52.2501 26.7401 52.2301 26.7301 52.2101C26.1801 51.6701 25.8301 50.9201 25.8301 50.0501V18.3001C25.8301 17.1701 26.4201 16.2401 27.2601 15.7201C27.2801 15.7201 27.2901 15.7001 27.3101 15.6901L45.2701 33.9701L26.7701 52.2501Z" fill="#38BDE5"/>
<path d="M93.7101 38.5001H84.9301V40.9301H91.0901C90.3501 43.6401 87.8801 45.6301 84.9301 45.6301C81.4101 45.6301 78.5501 42.7701 78.5501 39.2501C78.5501 35.7301 81.4101 32.8701 84.9301 32.8701C86.6001 32.8701 88.1101 33.5101 89.2501 34.5501L90.9701 32.8301C89.3901 31.3401 87.2701 30.4301 84.9301 30.4301C80.0601 30.4301 76.1201 34.3801 76.1201 39.2401C76.1201 44.1001 80.0701 48.0501 84.9301 48.0501C89.7901 48.0501 93.7401 44.1001 93.7401 39.2401C93.7401 38.9901 93.7301 38.7301 93.7101 38.4901V38.5001Z" fill="white"/>
<path d="M100.64 36.6801C97.53 36.6801 95 39.2201 95 42.3501C95 45.4801 97.52 48.0201 100.64 48.0201C103.76 48.0201 106.28 45.4801 106.28 42.3501C106.28 39.2201 103.76 36.6801 100.64 36.6801ZM100.64 45.7701C98.94 45.7701 97.56 44.2801 97.56 42.4401C97.56 40.6001 98.94 39.1101 100.64 39.1101C102.34 39.1101 103.72 40.6001 103.72 42.4401C103.72 44.2801 102.34 45.7701 100.64 45.7701Z" fill="white"/>
<path d="M113.19 36.6801C110.08 36.6801 107.55 39.2201 107.55 42.3501C107.55 45.4801 110.07 48.0201 113.19 48.0201C116.31 48.0201 118.83 45.4801 118.83 42.3501C118.83 39.2201 116.31 36.6801 113.19 36.6801ZM113.19 45.7701C111.49 45.7701 110.11 44.2801 110.11 42.4401C110.11 40.6001 111.49 39.1101 113.19 39.1101C114.89 39.1101 116.27 40.6001 116.27 42.4401C116.27 44.2801 114.89 45.7701 113.19 45.7701Z" fill="white"/>
<path d="M134.22 30.4401H131.79V48.2501H134.22V30.4401Z" fill="white"/>
<path d="M144.23 43.8101C143.86 44.5601 143.23 45.1401 142.46 45.4501C141.63 45.7701 140.73 45.7601 139.92 45.4001C139.4 45.1701 138.96 44.8301 138.63 44.3901L146.89 41.1501L146.76 40.7201C146.71 40.5601 146.66 40.4001 146.6 40.2501C146.04 38.8201 144.96 37.6901 143.55 37.0801C142.14 36.4601 140.58 36.4301 139.15 36.9901C137.72 37.5501 136.59 38.6301 135.98 40.0401C135.36 41.4501 135.33 43.0101 135.89 44.4401C136.45 45.8701 137.53 47.0001 138.94 47.6101C139.68 47.9301 140.46 48.0901 141.24 48.0901C141.95 48.0901 142.66 47.9601 143.34 47.6901C144.71 47.1501 145.81 46.1301 146.44 44.8001L146.66 44.3501L144.44 43.3801L144.23 43.8001V43.8101ZM143.47 39.8801L137.94 42.0401C137.97 41.6901 138.06 41.3501 138.21 41.0201C138.57 40.2101 139.22 39.5801 140.04 39.2601C140.43 39.1101 140.84 39.0301 141.25 39.0301C142.06 39.0301 142.86 39.3301 143.47 39.8801Z" fill="white"/>
<path d="M128.09 36.6801V37.6801C127.27 37.0501 126.27 36.6801 125.19 36.6801C122.37 36.6801 120.08 39.2201 120.08 42.3501C120.08 45.4801 122.37 48.0201 125.19 48.0201C126.27 48.0201 127.26 47.6501 128.09 47.0201V48.2401C128.09 48.9401 127.59 50.8901 125.29 50.8901C122.99 50.8901 122.35 48.8401 122.35 48.8401L120.14 49.8701C120.14 49.8701 120.97 53.1101 125.51 53.1101C127.97 53.1101 129.23 51.6801 129.88 50.3801C130.32 49.4901 130.53 48.5101 130.53 47.5301V36.6901H128.1L128.09 36.6801ZM125.2 45.7701C123.66 45.7701 122.4 44.2801 122.4 42.4401C122.4 40.6001 123.65 39.1101 125.2 39.1101C126.75 39.1101 128 40.6001 128 42.4401C128 44.2801 126.75 45.7701 125.2 45.7701Z" fill="white"/>
<path d="M157.74 30.4401H155.31V48.2501H157.74V30.4401Z" fill="white"/>
<path d="M161.15 30.4401V32.8701C162.85 32.8701 164.23 34.3601 164.23 36.2001C164.23 38.0401 162.85 39.5301 161.15 39.5301V41.7801C164.26 41.7801 166.79 39.2401 166.79 36.1101C166.79 32.9801 164.27 30.4401 161.15 30.4401Z" fill="white"/>
<path d="M161.16 30.4401H157.07V32.8701H161.16V30.4401Z" fill="white"/>
<path d="M161.16 39.53H157.07V41.78H161.16V39.53Z" fill="white"/>
<path d="M170.49 30.4401H168.06V48.2501H170.49V30.4401Z" fill="white"/>
<path d="M178.44 46.6901L178.74 46.3701V48.0701H180.79V40.7201C180.79 40.0401 180.71 39.4401 180.55 38.9401C180.39 38.4601 180.14 38.0601 179.79 37.7601C179.44 37.4501 178.99 37.2201 178.45 37.0701C177.9 36.9201 177.22 36.8401 176.43 36.8401C175.99 36.8401 175.56 36.8801 175.14 36.9501C174.72 37.0201 174.34 37.1101 173.98 37.2301C173.68 37.3301 173.4 37.4301 173.16 37.5401L173.29 39.4701C173.44 39.3901 173.61 39.3101 173.8 39.2301C174.1 39.1001 174.44 38.9701 174.83 38.8601C175.22 38.7501 175.67 38.6901 176.17 38.6901C176.55 38.6901 176.88 38.7301 177.15 38.8101C177.43 38.9001 177.65 39.0301 177.82 39.2101C177.99 39.3901 178.11 39.6201 178.18 39.8901C178.25 40.1501 178.28 40.4501 178.28 40.7801V41.5701H177.11C176.21 41.5701 175.42 41.6401 174.74 41.7701C174.07 41.9001 173.51 42.1101 173.07 42.3901C172.63 42.6601 172.3 43.0101 172.08 43.4201C171.86 43.8301 171.75 44.3301 171.75 44.9001C171.75 45.4301 171.84 45.8901 172.01 46.2801C172.18 46.6701 172.43 47.0001 172.74 47.2601C173.05 47.5201 173.43 47.7301 173.87 47.8601C174.31 48.0001 174.8 48.0701 175.32 48.0701C175.95 48.0701 176.53 47.9501 177.05 47.7101C177.57 47.4701 178.04 47.1201 178.44 46.6901ZM177.16 46.0401C176.79 46.2601 176.39 46.3801 175.95 46.3801C175.42 46.3801 175 46.2401 174.7 45.9701C174.39 45.6901 174.23 45.3101 174.23 44.8301C174.23 44.5501 174.28 44.3001 174.39 44.0801C174.5 43.8601 174.67 43.6701 174.9 43.5101C175.12 43.3601 175.42 43.2501 175.77 43.1701C176.11 43.1001 176.52 43.0601 177 43.0601H178.28V45.0501L178.24 45.1001C177.88 45.5101 177.51 45.8301 177.16 46.0401Z" fill="white"/>
<path d="M190.45 36.87L188.67 40.98L187.57 43.51L186.83 41.79L184.7 36.87H182.05L185.51 44.86L186.28 46.64L184.27 51.54H186.92L188.67 47.11L189.99 44.04L193.1 36.87H190.45Z" fill="white"/>
<path d="M90.8801 23.81C90.8801 23.87 90.8802 23.92 90.8702 23.97C90.8702 24.02 90.8502 24.05 90.8302 24.09C90.8102 24.12 90.7902 24.15 90.7602 24.16C90.7302 24.18 90.7002 24.18 90.6702 24.18H86.5402C86.4602 24.18 86.3702 24.15 86.2902 24.09C86.2002 24.03 86.1602 23.92 86.1602 23.75V15.79C86.1602 15.63 86.2002 15.51 86.2902 15.45C86.3802 15.39 86.4602 15.36 86.5402 15.36H90.6102C90.6102 15.36 90.6701 15.36 90.7001 15.38C90.7301 15.4 90.7501 15.42 90.7701 15.45C90.7901 15.48 90.8001 15.52 90.8102 15.57C90.8102 15.62 90.8202 15.67 90.8202 15.74C90.8202 15.8 90.8202 15.85 90.8102 15.9C90.8102 15.95 90.7901 15.98 90.7701 16.01C90.7501 16.04 90.7301 16.06 90.7001 16.08C90.6701 16.1 90.6402 16.1 90.6102 16.1H86.9902V19.2H90.1102C90.1102 19.2 90.1802 19.2 90.2102 19.22C90.2402 19.24 90.2602 19.26 90.2802 19.29C90.3002 19.32 90.3102 19.36 90.3202 19.41C90.3202 19.46 90.3302 19.51 90.3302 19.58C90.3302 19.64 90.3302 19.69 90.3202 19.73C90.3202 19.77 90.3002 19.81 90.2802 19.84C90.2602 19.87 90.2402 19.89 90.2102 19.9C90.1802 19.91 90.1502 19.92 90.1102 19.92H86.9902V23.44H90.6702C90.6702 23.44 90.7302 23.44 90.7602 23.46C90.7902 23.48 90.8102 23.5 90.8302 23.53C90.8502 23.56 90.8702 23.6 90.8702 23.65C90.8702 23.7 90.8801 23.75 90.8801 23.82V23.81Z" fill="white"/>
<path d="M98.31 15.74C98.31 15.8 98.31 15.85 98.3 15.9C98.3 15.95 98.28 15.98 98.26 16.01C98.24 16.04 98.22 16.06 98.19 16.08C98.16 16.1 98.13 16.1 98.1 16.1H95.47V24.04C95.47 24.04 95.47 24.09 95.45 24.11C95.44 24.13 95.41 24.15 95.38 24.16C95.35 24.17 95.31 24.18 95.25 24.19C95.2 24.19 95.13 24.2 95.05 24.2C94.97 24.2 94.91 24.2 94.85 24.19C94.8 24.19 94.75 24.17 94.72 24.16C94.69 24.15 94.67 24.13 94.65 24.11C94.64 24.09 94.63 24.06 94.63 24.04V16.1H92C92 16.1 91.93 16.1 91.91 16.08C91.89 16.06 91.86 16.04 91.85 16.01C91.83 15.98 91.82 15.94 91.81 15.9C91.81 15.85 91.8 15.8 91.8 15.74C91.8 15.68 91.8 15.62 91.81 15.57C91.81 15.52 91.83 15.48 91.85 15.45C91.87 15.42 91.89 15.39 91.91 15.38C91.93 15.36 91.97 15.36 92 15.36H98.09C98.09 15.36 98.15 15.36 98.18 15.38C98.21 15.4 98.23 15.42 98.25 15.45C98.27 15.48 98.28 15.52 98.29 15.57C98.29 15.62 98.3 15.67 98.3 15.74H98.31Z" fill="white"/>
<path d="M103.7 24.04C103.7 24.04 103.7 24.09 103.68 24.11C103.67 24.13 103.64 24.15 103.61 24.16C103.58 24.17 103.54 24.18 103.48 24.19C103.43 24.19 103.36 24.2 103.28 24.2C103.2 24.2 103.14 24.2 103.08 24.19C103.02 24.18 102.98 24.17 102.95 24.16C102.92 24.15 102.9 24.13 102.88 24.11C102.87 24.09 102.86 24.06 102.86 24.04V15.5C102.86 15.5 102.86 15.45 102.88 15.43C102.9 15.41 102.92 15.39 102.95 15.38C102.98 15.37 103.03 15.36 103.08 15.35C103.13 15.35 103.19 15.34 103.27 15.34C103.35 15.34 103.42 15.34 103.47 15.35C103.52 15.35 103.56 15.37 103.6 15.38C103.63 15.39 103.65 15.41 103.67 15.43C103.68 15.45 103.69 15.48 103.69 15.5V24.04H103.7Z" fill="white"/>
<path d="M111.62 15.74C111.62 15.8 111.62 15.85 111.61 15.9C111.61 15.95 111.59 15.98 111.57 16.01C111.55 16.04 111.53 16.06 111.5 16.08C111.47 16.1 111.44 16.1 111.41 16.1H108.78V24.04C108.78 24.04 108.78 24.09 108.76 24.11C108.75 24.13 108.72 24.15 108.69 24.16C108.66 24.17 108.62 24.18 108.56 24.19C108.51 24.19 108.44 24.2 108.36 24.2C108.28 24.2 108.22 24.2 108.16 24.19C108.1 24.18 108.06 24.17 108.03 24.16C108 24.15 107.98 24.13 107.96 24.11C107.95 24.09 107.94 24.06 107.94 24.04V16.1H105.31C105.31 16.1 105.24 16.1 105.22 16.08C105.2 16.06 105.17 16.04 105.16 16.01C105.14 15.98 105.13 15.94 105.12 15.9C105.12 15.85 105.11 15.8 105.11 15.74C105.11 15.68 105.11 15.62 105.12 15.57C105.12 15.52 105.14 15.48 105.16 15.45C105.18 15.42 105.2 15.39 105.22 15.38C105.24 15.36 105.28 15.36 105.31 15.36H111.4C111.4 15.36 111.46 15.36 111.49 15.38C111.52 15.4 111.54 15.42 111.56 15.45C111.58 15.48 111.59 15.52 111.6 15.57C111.6 15.62 111.61 15.67 111.61 15.74H111.62Z" fill="white"/>
<path d="M123.27 19.66C123.27 20.36 123.19 21 123.03 21.57C122.87 22.14 122.63 22.63 122.3 23.03C121.98 23.43 121.57 23.74 121.08 23.96C120.59 24.18 120.02 24.29 119.36 24.29C118.7 24.29 118.14 24.19 117.67 23.98C117.2 23.77 116.81 23.48 116.51 23.09C116.21 22.71 115.99 22.24 115.84 21.68C115.7 21.13 115.63 20.5 115.63 19.81C115.63 19.12 115.71 18.49 115.87 17.93C116.03 17.37 116.27 16.89 116.6 16.49C116.92 16.09 117.33 15.78 117.82 15.57C118.31 15.35 118.88 15.24 119.54 15.24C120.2 15.24 120.73 15.34 121.2 15.55C121.67 15.75 122.06 16.05 122.36 16.43C122.66 16.81 122.89 17.27 123.04 17.82C123.19 18.37 123.26 18.98 123.26 19.67L123.27 19.66ZM122.38 19.74C122.38 19.22 122.33 18.73 122.23 18.27C122.13 17.81 121.97 17.42 121.75 17.08C121.53 16.74 121.23 16.48 120.85 16.28C120.48 16.09 120.02 15.99 119.47 15.99C118.92 15.99 118.46 16.09 118.09 16.29C117.72 16.49 117.41 16.76 117.18 17.1C116.95 17.44 116.78 17.84 116.68 18.29C116.58 18.74 116.53 19.22 116.53 19.73C116.53 20.27 116.58 20.76 116.67 21.23C116.76 21.69 116.92 22.09 117.14 22.43C117.36 22.77 117.66 23.04 118.03 23.23C118.4 23.42 118.87 23.52 119.43 23.52C119.99 23.52 120.45 23.42 120.83 23.21C121.21 23 121.51 22.73 121.74 22.38C121.97 22.03 122.14 21.63 122.24 21.17C122.34 20.71 122.39 20.23 122.39 19.73L122.38 19.74Z" fill="white"/>
<path d="M131.64 23.77C131.64 23.85 131.63 23.92 131.6 23.97C131.58 24.02 131.54 24.07 131.5 24.1C131.46 24.13 131.42 24.16 131.37 24.17C131.32 24.18 131.28 24.19 131.24 24.19H131.07C130.98 24.19 130.9 24.18 130.82 24.16C130.75 24.14 130.67 24.1 130.6 24.04C130.53 23.98 130.46 23.91 130.39 23.81C130.32 23.71 130.24 23.59 130.15 23.44L127.04 17.93C126.89 17.66 126.73 17.39 126.57 17.1C126.41 16.82 126.26 16.54 126.12 16.27C126.12 16.6 126.12 16.94 126.12 17.29V24.02C126.12 24.02 126.12 24.07 126.1 24.09C126.09 24.11 126.06 24.13 126.03 24.14C126 24.15 125.96 24.16 125.9 24.17C125.85 24.17 125.78 24.18 125.7 24.18C125.62 24.18 125.56 24.18 125.5 24.17C125.44 24.16 125.4 24.15 125.37 24.14C125.34 24.13 125.32 24.11 125.3 24.09C125.29 24.07 125.28 24.04 125.28 24.02V15.77C125.28 15.61 125.32 15.49 125.41 15.43C125.5 15.37 125.58 15.34 125.66 15.34H126C126.11 15.34 126.2 15.34 126.27 15.37C126.34 15.39 126.41 15.42 126.47 15.46C126.53 15.5 126.59 15.56 126.64 15.64C126.7 15.72 126.76 15.82 126.83 15.94L129.21 20.16C129.36 20.42 129.5 20.68 129.64 20.92C129.77 21.16 129.9 21.4 130.03 21.64C130.16 21.87 130.28 22.1 130.41 22.33C130.53 22.56 130.66 22.79 130.78 23.02C130.78 22.64 130.78 22.24 130.78 21.83V15.51C130.78 15.51 130.78 15.46 130.8 15.44C130.81 15.42 130.84 15.4 130.87 15.38C130.9 15.36 130.94 15.35 131 15.35C131.05 15.35 131.12 15.34 131.2 15.34C131.27 15.34 131.34 15.34 131.39 15.35C131.44 15.35 131.49 15.37 131.52 15.38C131.55 15.4 131.58 15.42 131.59 15.44C131.61 15.46 131.61 15.49 131.61 15.51V23.76L131.64 23.77Z" fill="white"/>
<path d="M76.1101 19.76C76.1101 22.14 78.0501 24.07 80.4201 24.07C82.7901 24.07 84.7301 22.13 84.7301 19.76C84.7301 19.7 84.7301 19.64 84.7301 19.58H80.6201V20.42H83.8401L83.7701 20.68C83.3601 22.19 81.9801 23.24 80.4201 23.24C78.5001 23.24 76.9501 21.68 76.9501 19.77C76.9501 17.86 78.5101 16.3 80.4201 16.3C81.2301 16.3 82.0001 16.58 82.6201 17.09L83.2201 16.49C82.4401 15.82 81.4501 15.46 80.4201 15.46C78.0401 15.46 76.1101 17.4 76.1101 19.77V19.76Z" fill="white"/>
</g>
<defs>
<clipPath id="clip0_2_21017">
<rect width="227.26" height="68.35" fill="white"/>
</clipPath>
</defs>
</svg>
