<svg width="74" height="72" viewBox="0 0 74 72" fill="none" xmlns="http://www.w3.org/2000/svg">
<path d="M29.4371 27.2898C29.4371 27.2898 26.2771 23.9898 22.6071 19.8498L22.5171 19.7398C18.9171 15.6298 14.427 10.4998 12.347 6.02985L13.2871 5.58984C15.3071 9.92984 19.7371 14.9898 23.2971 19.0598L23.3871 19.1698C27.0371 23.2898 30.1471 26.5398 30.1871 26.5798L29.4371 27.2998V27.2898Z" fill="#C46831"/>
<path d="M62.5171 5.42004C62.5171 5.42004 62.5171 5.52003 62.5271 5.72003C62.5171 6.23003 62.5271 7.39003 62.2871 8.83003C62.0371 10.26 61.6471 12.04 60.8971 13.83C59.4571 17.45 56.787 21.23 52.837 23.72C53.437 23.91 54.0471 24.11 54.6471 24.36C58.3171 25.85 61.6471 28.28 64.5071 31.31C65.9371 32.88 67.2371 34.46 68.5171 36.55C69.1471 37.53 69.687 38.53 70.197 39.48C70.687 40.45 71.1071 41.39 71.5071 42.28C71.7071 42.78 71.887 43.2501 72.077 43.7101C72.227 44.0701 72.3571 44.42 72.4771 44.76C72.7271 45.44 72.9471 46.06 73.1171 46.61C73.4771 47.72 73.6871 48.54 73.7971 48.98L73.8871 49.36H73.6571C73.0371 49.39 71.2171 49.3801 68.7271 48.9901C67.4671 48.7901 66.0571 48.5 64.5271 48.1C63.7571 47.9 62.9671 47.67 62.1671 47.41C61.7571 47.27 61.3571 47.1601 60.9371 46.9901C60.5071 46.7901 60.0771 46.58 59.6371 46.38C57.0971 45.28 54.3771 43.9 51.6371 42.32C50.7571 41.82 49.917 41.32 49.087 40.81C49.647 41.84 50.137 42.93 50.577 44.14C51.187 45.8 51.5171 47.49 51.6671 49.13C51.7371 49.92 51.7571 50.6 51.7271 51.29C51.7171 51.98 51.667 52.65 51.597 53.32C51.457 54.65 51.2171 55.91 50.8971 57.09C50.2671 59.46 49.3671 61.49 48.5371 63.31C46.8571 66.94 45.5971 69.94 45.2271 70.78C45.1571 70.93 45.1171 71.0201 45.1171 71.0201C45.1171 71.0201 45.0471 70.96 44.9071 70.84C44.5771 70.55 43.8571 69.91 42.9371 68.88C42.0271 67.86 40.9371 66.43 39.8771 64.81C38.8071 63.18 37.787 61.51 36.827 59.91C36.347 59.12 35.8771 58.3201 35.4271 57.5201C35.2071 57.1101 34.9871 56.7 34.7671 56.29L34.447 55.66L34.1871 55.17C34.0171 54.83 33.8371 54.5 33.6871 54.16C33.5071 53.83 33.357 53.48 33.197 53.13C33.027 52.78 32.9071 52.44 32.7371 52.04C32.5671 51.65 32.4271 51.2201 32.2571 50.7701C31.8971 49.7801 31.597 48.73 31.327 47.67C31.017 48.63 30.5671 49.57 30.0571 50.48C28.8571 52.56 27.2471 54.27 25.4871 55.62C23.7371 56.97 21.8171 57.96 20.1071 58.85C16.6471 60.57 13.837 61.73 13.077 62.09C12.937 62.15 12.8671 62.1801 12.8671 62.1801C12.8671 62.1801 12.8871 62.16 12.9171 62.13C12.9471 62.07 13.0871 62.05 13.1471 61.85C13.1871 61.77 13.2271 61.65 13.2671 61.5C13.3171 61.36 13.3571 61.2001 13.3871 60.9901C13.5571 60.2101 13.6671 59.01 13.8771 57.53C14.2571 54.53 14.857 50.4701 16.837 46.4301C17.067 45.9901 17.2871 45.55 17.5171 45.11C15.0471 46.74 12.8171 48.26 11.0071 49.7L10.587 49.92L10.1171 50.08C9.80707 50.18 9.49713 50.28 9.18713 50.38C8.57713 50.56 7.98711 50.73 7.41711 50.89C6.28711 51.19 5.24704 51.43 4.33704 51.63C2.51704 52.01 1.23708 52.19 0.75708 52.25C0.62708 52.27 0.557129 52.2701 0.557129 52.2701C0.557129 52.2701 0.587085 52.1801 0.637085 52.0201C0.887085 51.1901 1.76709 48.47 3.39709 45.08C5.04709 41.71 7.40709 37.62 11.0171 34.35C12.7771 32.76 14.6971 31.5 16.6471 30.55C13.6671 30.61 10.947 29.93 8.82703 29.21C6.70703 28.48 5.17709 27.69 4.64709 27.39C4.51709 27.32 4.44702 27.28 4.44702 27.28C4.44702 27.28 4.50708 27.21 4.62708 27.09C5.54708 26.16 9.87713 21.77 16.0571 21.36C21.1371 21.03 25.8871 23.61 28.0171 25.06C28.0971 25.12 28.1671 25.17 28.2471 25.22C28.2771 25.24 28.297 25.26 28.327 25.27C28.347 25.29 28.3671 25.3 28.3871 25.31C28.3971 25.31 28.4071 25.32 28.4171 25.33L28.4871 25.23C28.4871 25.23 28.4371 25.13 28.4171 25.07C28.4171 25.07 28.4171 25.06 28.4071 25.05C28.3971 25.03 28.3771 24.99 28.3671 24.96C27.3371 22.66 25.2771 17.61 25.4871 12.27C25.6371 9.08003 26.6271 6.31003 27.7471 4.22003C28.8571 2.13003 30.0871 0.730036 30.5571 0.240036C30.6771 0.110036 30.7471 0.0400391 30.7471 0.0400391C30.7471 0.0400391 30.8071 0.130039 30.9271 0.290039C31.3871 0.940039 32.6771 2.84005 33.7271 5.39005C34.7871 7.94005 35.6071 11.13 35.3571 14.3C36.5071 12.43 37.9271 10.61 39.7271 9.04004C42.0971 6.97004 44.8771 5.58004 47.6271 4.70004C49.0071 4.26004 50.3771 3.95004 51.6871 3.73004C52.3471 3.62004 52.977 3.54003 53.597 3.47003C53.907 3.44003 54.2071 3.41004 54.5071 3.38004C54.6571 3.38004 54.797 3.35004 54.947 3.35004C55.117 3.36004 55.2771 3.37004 55.4371 3.38004C58.7071 4.00004 61.2771 5.01004 62.1371 5.31004C62.3771 5.40004 62.5171 5.45004 62.5171 5.45004V5.42004Z" fill="#C46831"/>
<path d="M62.5171 5.41978C62.5171 5.41978 62.5171 5.51977 62.5271 5.71977C59.7171 6.89977 56.8371 8.06978 54.0371 9.30978C51.2371 10.5598 48.477 11.9198 45.827 13.3798C44.317 14.2598 42.9471 15.2698 41.5171 16.2198L37.2871 19.1298C34.4771 21.0898 31.6971 23.0698 28.9371 25.0798L28.6471 25.2898L28.6071 25.3198L28.5671 25.3498L28.447 25.4698L28.3071 25.5898C18.9471 34.2898 9.75708 43.1498 0.75708 52.1998C0.62708 52.2198 0.557129 52.2198 0.557129 52.2198C0.557129 52.2198 0.587085 52.1298 0.637085 51.9698C9.59708 42.9198 18.767 34.0498 28.097 25.3498L28.2271 25.2198L28.2671 25.1798L28.347 25.1098L28.3971 25.0598L28.4371 25.0298L28.467 25.0098L28.7471 24.8098C31.7271 22.6198 34.7371 20.4798 37.7771 18.3598L42.3571 15.2098L44.6571 13.6498L45.8171 12.8798L47.0171 12.1498C49.4271 10.8498 51.917 9.62979 54.467 8.49979C56.997 7.36979 59.6071 6.32979 62.1671 5.27979C62.4071 5.36979 62.5471 5.41978 62.5471 5.41978H62.5171Z" fill="#9F552E"/>
<path d="M30.7371 0C30.7371 0 30.7971 0.09 30.9171 0.25C30.8671 8.7 30.037 16.88 28.717 24.82L28.6771 25.05L28.6371 25.29V25.35H28.5671H28.5071H28.337H28.1071C19.9771 25.27 12.0471 25.86 4.66711 27.35C4.53711 27.28 4.46704 27.24 4.46704 27.24C4.46704 27.24 4.52709 27.17 4.64709 27.05C12.0071 25.56 19.9271 24.96 28.0471 25.03H28.3571V25.01L28.3771 24.93C29.7071 16.94 30.537 8.70999 30.577 0.209991C30.697 0.0799915 30.7671 0.00999451 30.7671 0.00999451L30.7371 0Z" fill="#9F552E"/>
<path d="M73.8771 49.3698H73.6471C72.7671 48.3898 71.877 47.4098 70.967 46.4598L69.587 45.0598C69.347 44.8098 69.1371 44.6498 68.8771 44.3498L68.1071 43.4498C67.4171 42.7298 66.7171 42.0298 66.0171 41.3498C65.2871 40.6798 64.577 40.0297 63.837 39.3997C63.097 38.7897 62.3471 38.1498 61.6071 37.6198C60.8671 37.0898 60.157 36.5998 59.447 36.1498C56.587 34.3498 53.777 32.9298 50.947 31.6598C48.117 30.3998 45.2871 29.3098 42.4171 28.3498C39.5571 27.4098 36.637 26.5498 33.697 26.0198C31.997 25.7698 30.3171 25.5698 28.6371 25.3798L28.6171 25.6798C28.4471 27.7798 28.2671 29.8898 28.0171 31.9498C27.7671 33.4498 27.4071 34.8798 27.0171 36.2998C26.6271 37.7498 26.1871 39.1498 25.7271 40.5698C24.7871 43.3898 23.7271 46.1398 22.5371 48.7998C21.3471 51.4598 20.0171 54.0298 18.5071 56.3698C18.1171 56.9498 17.737 57.5298 17.337 58.0798C16.917 58.6198 16.4971 59.1498 16.0671 59.6598C15.6271 60.1598 15.1571 60.6398 14.6771 61.0398C14.2071 61.4798 13.617 61.7398 13.087 62.0598C12.947 62.1198 12.8771 62.1497 12.8771 62.1497C12.8771 62.1497 12.8971 62.1298 12.9271 62.0998C14.0571 61.5698 14.957 60.6398 15.827 59.6298C16.247 59.1198 16.677 58.6098 17.077 58.0598C17.467 57.5098 17.8471 56.9398 18.2271 56.3698C19.7071 54.0398 21.017 51.5198 22.197 48.8898C23.367 46.2698 24.4271 43.5498 25.3571 40.7798C25.8171 39.3898 26.2571 38.0098 26.6471 36.5898C27.0471 35.1898 27.4071 33.7898 27.6671 32.3098C27.9371 30.1098 28.1371 27.8498 28.3171 25.5998L28.337 25.3498L28.347 25.2398V25.1198L28.3571 25.0298V25.0098H28.3671H28.4271L28.467 25.0198H28.5271L28.707 25.0498L28.957 25.0798C30.637 25.2698 32.2971 25.4698 33.9971 25.7198C36.9571 26.2698 39.8971 27.1398 42.7571 28.0898C45.6271 29.0598 48.4671 30.1598 51.3071 31.4298C54.1471 32.7098 56.967 34.1398 59.827 35.9498C60.547 36.3998 61.2571 36.8898 61.9971 37.4298C62.7371 37.9698 63.4871 38.6098 64.2271 39.2298C64.9671 39.8598 65.6871 40.5198 66.4171 41.1998C67.1171 41.8898 67.8171 42.5898 68.5171 43.3198L69.2571 44.1798C69.3871 44.3398 69.4971 44.4598 69.6071 44.5498L69.9371 44.8698L71.2471 46.1998C72.1171 47.0998 72.9771 48.0398 73.8071 48.9798L73.8971 49.3598L73.8771 49.3698Z" fill="#9F552E"/>
<path d="M45.217 70.7701C45.147 70.9201 45.1071 71.0101 45.1071 71.0101C45.1071 71.0101 45.0371 70.9501 44.8971 70.8301C44.4771 69.1001 44.1771 67.3401 43.9771 65.6501C43.7771 63.9601 43.6671 62.3701 43.5671 60.8601C43.4671 59.3501 43.3571 57.9201 43.1871 56.4901C43.0271 55.0801 42.8071 53.5901 42.5571 52.2501C42.1971 50.2001 41.5671 48.2601 40.8071 46.2101C40.0371 44.1801 39.1371 42.1401 38.1571 40.1401C36.1671 36.1501 33.9471 32.2001 31.1471 28.6501C30.2271 27.5201 29.2971 26.4001 28.3571 25.2901L28.6071 25.0801C29.5471 26.1801 30.4671 27.3001 31.3771 28.4101C34.2071 31.9901 36.4271 35.9401 38.4271 39.9501C39.4171 41.9601 40.317 44.0001 41.097 46.0501C41.867 48.1101 42.5071 50.0701 42.8671 52.1401C43.1171 53.5001 43.3471 54.9901 43.5071 56.4101C43.6771 57.8501 43.7871 59.3001 43.8871 60.8101C43.9971 62.3201 44.0971 63.9201 44.2971 65.6001C44.4971 67.2801 44.797 69.0401 45.207 70.7601L45.217 70.7701Z" fill="#9F552E"/>
</svg>
